<svg width="20" height="20" viewBox="0 0 133 84" fill="none" xmlns="http://www.w3.org/2000/svg">
<g filter="url(#filter0_d_2_2)">
<path d="M119.085 37.9377V28.7383H78.5391V10.1236H69.2323V0.662674H66.6943H66.4781H63.9375V10.1236H54.6328V28.7383H14.0844V37.9377H4.63855V75.72H66.4781H66.6943H128.533V37.9377H119.085Z" fill="#195F20"/>
<path d="M119.085 38.4377H118.585V37.9377V29.2383H78.5391H78.0391V28.7383V10.6236H69.2323H68.7323V10.1236V1.16267H66.6943H66.4781H64.4375V10.1236V10.6236H63.9375H55.1328V28.7383V29.2383H54.6328H14.5844V37.9377V38.4377H14.0844H5.13855V75.22H66.4781H66.6943H128.033V38.4377H119.085Z" stroke="black"/>
</g>
<defs>
<filter id="filter0_d_2_2" x="0.63855" y="0.662674" width="131.895" height="83.0573" filterUnits="userSpaceOnUse" color-interpolation-filters="sRGB">
<feFlood flood-opacity="0" result="BackgroundImageFix"/>
<feColorMatrix in="SourceAlpha" type="matrix" values="0 0 0 0 0 0 0 0 0 0 0 0 0 0 0 0 0 0 127 0" result="hardAlpha"/>
<feOffset dy="4"/>
<feGaussianBlur stdDeviation="2"/>
<feComposite in2="hardAlpha" operator="out"/>
<feColorMatrix type="matrix" values="0 0 0 0 0 0 0 0 0 0 0 0 0 0 0 0 0 0 0.25 0"/>
<feBlend mode="normal" in2="BackgroundImageFix" result="effect1_dropShadow_2_2"/>
<feBlend mode="normal" in="SourceGraphic" in2="effect1_dropShadow_2_2" result="shape"/>
</filter>
</defs>
</svg>
